<?xml version="1.0" encoding="UTF-8"?>
<svg width="22px" height="12px" viewBox="0 0 22 12" version="1.1" xmlns="http://www.w3.org/2000/svg" xmlns:xlink="http://www.w3.org/1999/xlink">
    <title>Group</title>
    <g id="MVP2" stroke="none" stroke-width="1" fill="none" fill-rule="evenodd">
        <g id="Artboard" transform="translate(-63.000000, -55.000000)" fill="#232323" fill-rule="nonzero">
            <g id="Group" transform="translate(63.000000, 55.436090)">
                <path d="M20.7804345,0 C21.3327193,0 21.7804345,0.44771525 21.7804345,1 C21.7804345,1.51283584 21.3943943,1.93550716 20.8970556,1.99327227 L20.7804345,2 L1,2 C0.44771525,2 4.90274488e-12,1.55228475 4.90274488e-12,1 C4.90274488e-12,0.487164161 0.38604019,0.0644928393 0.883378875,0.00672773133 L1,0 L20.7804345,0 Z" id="Path-11-Copy"></path>
                <path d="M20.7804345,8.05263158 C21.3327193,8.05263158 21.7804345,8.50034683 21.7804345,9.05263158 C21.7804345,9.56546742 21.3943943,9.98813874 20.8970556,10.0459038 L20.7804345,10.0526316 L1,10.0526316 C0.44771525,10.0526316 4.90274488e-12,9.60491633 4.90274488e-12,9.05263158 C4.90274488e-12,8.53979574 0.38604019,8.11712442 0.883378875,8.05935931 L1,8.05263158 L20.7804345,8.05263158 Z" id="Path-11-Copy-2"></path>
            </g>
        </g>
    </g>
</svg>