<?xml version="1.0" encoding="UTF-8"?>
<svg width="56px" height="72px" viewBox="0 0 56 72" version="1.1" xmlns="http://www.w3.org/2000/svg" xmlns:xlink="http://www.w3.org/1999/xlink">
    <title>ic_ADD_PHONE_LINE</title>
    <defs>
        <rect id="path-1" x="0" y="0" width="10" height="64"></rect>
        <rect id="path-3" x="0" y="0" width="10" height="64"></rect>
    </defs>
    <g id="Home" stroke="none" stroke-width="1" fill="none" fill-rule="evenodd">
        <g id="01.-Home-Page--1920" transform="translate(-1292.000000, -1072.000000)">
            <g id="BROWSE-OUR-LATEST-OFFFERS" transform="translate(252.000000, 944.000000)">
                <g id="Add-a-phone-line" transform="translate(960.000000, 72.000000)">
                    <g id="ic_ADD_PHONE_LINE" transform="translate(80.000000, 56.000000)">
                        <g id="phone-right" transform="translate(46.000000, 4.000000)">
                            <mask id="mask-2" fill="white">
                                <use xlink:href="#path-1"></use>
                            </mask>
                            <g id="Rectangle"></g>
                            <path d="M4,0 C7.3137085,0 10,2.6862915 10,6 L10,58 C10,61.3137085 7.3137085,64 4,64 L-24,64 C-27.3137085,64 -30,61.3137085 -30,58 L-30,6 C-30,2.6862915 -27.3137085,0 -24,0 L4,0 Z M4,2 L-24,2 C-26.1421954,2 -27.8910789,3.68396847 -27.9951047,5.80035966 L-28,6 L-28,58 C-28,60.1421954 -26.3160315,61.8910789 -24.1996403,61.9951047 L-24,62 L4,62 C6.14219539,62 7.89107888,60.3160315 7.99510469,58.1996403 L8,58 L8,6 C8,3.85780461 6.31603153,2.10892112 4.19964034,2.00489531 L4,2 Z" id="Rectangle" fill="#202020" fill-rule="nonzero" mask="url(#mask-2)"></path>
                        </g>
                        <g id="phone-left" transform="translate(0.000000, 4.000000)">
                            <mask id="mask-4" fill="white">
                                <use xlink:href="#path-3"></use>
                            </mask>
                            <g id="Rectangle"></g>
                            <path d="M34,0 C37.3137085,0 40,2.6862915 40,6 L40,58 C40,61.3137085 37.3137085,64 34,64 L6,64 C2.6862915,64 0,61.3137085 0,58 L0,6 C0,2.6862915 2.6862915,0 6,0 L34,0 Z M34,2 L6,2 C3.85780461,2 2.10892112,3.68396847 2.00489531,5.80035966 L2,6 L2,58 C2,60.1421954 3.68396847,61.8910789 5.80035966,61.9951047 L6,62 L34,62 C36.1421954,62 37.8910789,60.3160315 37.9951047,58.1996403 L38,58 L38,6 C38,3.85780461 36.3160315,2.10892112 34.1996403,2.00489531 L34,2 Z" id="Rectangle" fill="#202020" fill-rule="nonzero" mask="url(#mask-4)"></path>
                        </g>
                        <path d="M42,0 C45.3137085,0 48,2.6862915 48,6 L48,66 C48,69.3137085 45.3137085,72 42,72 L14,72 C10.6862915,72 8,69.3137085 8,66 L8,6 C8,2.6862915 10.6862915,0 14,0 L42,0 Z M42,2 L14,2 C11.8578046,2 10.1089211,3.68396847 10.0048953,5.80035966 L10,6 L10,66 C10,68.1421954 11.6839685,69.8910789 13.8003597,69.9951047 L14,70 L42,70 C44.1421954,70 45.8910789,68.3160315 45.9951047,66.1996403 L46,66 L46,6 C46,3.85780461 44.3160315,2.10892112 42.1996403,2.00489531 L42,2 Z" id="Rectangle" fill="#202020" fill-rule="nonzero"></path>
                        <path d="M29,66 C29.5522847,66 30,66.4477153 30,67 C30,67.5522847 29.5522847,68 29,68 L27,68 C26.4477153,68 26,67.5522847 26,67 C26,66.4477153 26.4477153,66 27,66 L29,66 Z" id="Rectangle" fill="#202020" fill-rule="nonzero"></path>
                        <path d="M36,2 C36,3.1045695 35.1045695,4 34,4 L22,4 C20.8954305,4 20,3.1045695 20,2 L36,2 Z" id="Rectangle" fill="#202020" fill-rule="nonzero"></path>
                        <path d="M28,28 C28.5522847,28 29,28.4477153 29,29 L29,43 C29,43.5522847 28.5522847,44 28,44 C27.4477153,44 27,43.5522847 27,43 L27,29 C27,28.4477153 27.4477153,28 28,28 Z" id="Rectangle" fill="#202020" fill-rule="nonzero"></path>
                        <path d="M35,35 C35.5522847,35 36,35.4477153 36,36 C36,36.5522847 35.5522847,37 35,37 L21,37 C20.4477153,37 20,36.5522847 20,36 C20,35.4477153 20.4477153,35 21,35 L35,35 Z" id="Rectangle" fill="#202020" fill-rule="nonzero"></path>
                    </g>
                </g>
            </g>
        </g>
    </g>
</svg>