<?xml version="1.0" encoding="UTF-8"?>
<svg width="88px" height="64px" viewBox="0 0 88 64" version="1.1" xmlns="http://www.w3.org/2000/svg" xmlns:xlink="http://www.w3.org/1999/xlink">
    <title>ic_HOME_INTERNET</title>
    <g id="Home" stroke="none" stroke-width="1" fill="none" fill-rule="evenodd">
        <g id="01.-Home-Page--1920" transform="translate(-556.000000, -1076.000000)" fill="#202020">
            <g id="BROWSE-OUR-LATEST-OFFFERS" transform="translate(252.000000, 944.000000)">
                <g id="Home-Internet" transform="translate(240.000000, 72.000000)">
                    <g id="ic_HOME_INTERNET" transform="translate(64.000000, 60.000000)">
                        <path d="M82,40 C85.3137085,40 88,42.6862915 88,46 L88,58 C88,61.3137085 85.3137085,64 82,64 L6,64 C2.6862915,64 0,61.3137085 0,58 L0,46 C0,42.6862915 2.6862915,40 6,40 L82,40 Z M82,42 L6,42 C3.85780461,42 2.10892112,43.6839685 2.00489531,45.8003597 L2,46 L2,58 C2,60.1421954 3.68396847,61.8910789 5.80035966,61.9951047 L6,62 L82,62 C84.1421954,62 85.8910789,60.3160315 85.9951047,58.1996403 L86,58 L86,46 C86,43.8578046 84.3160315,42.1089211 82.1996403,42.0048953 L82,42 Z" id="Rectangle" fill-rule="nonzero"></path>
                        <path d="M7,56 C6.448,56 6,56.448 6,57 C6,57.55 6.448,58 7,58 L9,58 C9.552,58 10,57.55 10,57 C10,56.448 9.552,56 9,56 L7,56 Z" id="Fill-3"></path>
                        <path d="M12,56 C11.448,56 11,56.448 11,57 C11,57.55 11.448,58 12,58 L14,58 C14.552,58 15,57.55 15,57 C15,56.448 14.552,56 14,56 L12,56 Z" id="Fill-3"></path>
                        <path d="M17,56 C16.448,56 16,56.448 16,57 C16,57.55 16.448,58 17,58 L19,58 C19.552,58 20,57.55 20,57 C20,56.448 19.552,56 19,56 L17,56 Z" id="Fill-3"></path>
                        <path d="M22,56 C21.448,56 21,56.448 21,57 C21,57.55 21.448,58 22,58 L24,58 C24.552,58 25,57.55 25,57 C25,56.448 24.552,56 24,56 L22,56 Z" id="Fill-3"></path>
                        <path d="M10,32 L14,32 C15.1045695,32 16,32.8954305 16,34 L16,40 L16,40 L8,40 L8,34 C8,32.8954305 8.8954305,32 10,32 Z" id="Rectangle"></path>
                        <path d="M74,32 L78,32 C79.1045695,32 80,32.8954305 80,34 L80,40 L80,40 L72,40 L72,34 C72,32.8954305 72.8954305,32 74,32 Z" id="Rectangle"></path>
                        <path d="M12,0 C12.5522847,0 13,0.44771525 13,1 L13,33 C13,33.5522847 12.5522847,34 12,34 C11.4477153,34 11,33.5522847 11,33 L11,1 C11,0.44771525 11.4477153,0 12,0 Z" id="Rectangle" fill-rule="nonzero"></path>
                        <path d="M76,0 C76.5522847,0 77,0.44771525 77,1 L77,33 C77,33.5522847 76.5522847,34 76,34 C75.4477153,34 75,33.5522847 75,33 L75,1 C75,0.44771525 75.4477153,0 76,0 Z" id="Rectangle" fill-rule="nonzero"></path>
                    </g>
                </g>
            </g>
        </g>
    </g>
</svg>