<?xml version="1.0" encoding="UTF-8"?>
<svg width="64px" height="70px" viewBox="0 0 64 70" version="1.1" xmlns="http://www.w3.org/2000/svg" xmlns:xlink="http://www.w3.org/1999/xlink">
    <title>ic_MOBILE_INTERNET</title>
    <g id="Home" stroke="none" stroke-width="1" fill="none" fill-rule="evenodd">
        <g id="01.-Home-Page--1920" transform="translate(-328.000000, -1072.000000)" fill="#202020">
            <g id="BROWSE-OUR-LATEST-OFFFERS" transform="translate(252.000000, 944.000000)">
                <g id="Mobile-Internet" transform="translate(0.000000, 72.000000)">
                    <g id="ic_MOBILE_INTERNET" transform="translate(76.000000, 56.000000)">
                        <path d="M32,6 C49.673112,6 64,20.326888 64,38 C64,55.673112 49.673112,70 32,70 C14.326888,70 0,55.673112 0,38 C0,20.326888 14.326888,6 32,6 Z M32,8 C15.4314575,8 2,21.4314575 2,38 C2,54.5685425 15.4314575,68 32,68 C48.5685425,68 62,54.5685425 62,38 C62,21.4314575 48.5685425,8 32,8 Z" id="Oval" fill-rule="nonzero"></path>
                        <path d="M32,14 C45.254834,14 56,24.745166 56,38 C56,51.254834 45.254834,62 32,62 C18.745166,62 8,51.254834 8,38 C8,24.745166 18.745166,14 32,14 Z M32,16 C19.8497355,16 10,25.8497355 10,38 C10,50.1502645 19.8497355,60 32,60 C44.1502645,60 54,50.1502645 54,38 C54,25.8497355 44.1502645,16 32,16 Z" id="Oval" fill-rule="nonzero"></path>
                        <path d="M32.3162278,22.2135944 C32.6148328,22.3131294 32.8491483,22.5474449 32.9486833,22.8460499 L37.5946402,36.7839206 C37.8582767,37.5748302 37.8682,38.4283499 37.6230231,39.2251751 L32.955779,54.3937182 C32.7933599,54.9215804 32.2337763,55.2178305 31.7059142,55.0554114 C31.3893907,54.9580196 31.1416128,54.7102417 31.044221,54.3937182 L26.3769769,39.2251751 C26.1318,38.4283499 26.1417233,37.5748302 26.4053598,36.7839206 L31.0513167,22.8460499 C31.2259645,22.3221066 31.7922844,22.0389466 32.3162278,22.2135944 Z M32,36 C30.8954305,36 30,36.8954305 30,38 C30,39.1045695 30.8954305,40 32,40 C33.1045695,40 34,39.1045695 34,38 C34,36.8954305 33.1045695,36 32,36 Z" id="Combined-Shape"></path>
                        <path d="M32,0 C29.790861,0 28,1.790861 28,4 C28,6.209139 29.790861,8 32,8 C34.209139,8 36,6.209139 36,4 C36,1.790861 34.209139,0 32,0 Z M32,2 C33.1045695,2 34,2.8954305 34,4 C34,5.1045695 33.1045695,6 32,6 C30.8954305,6 30,5.1045695 30,4 C30,2.8954305 30.8954305,2 32,2 Z" id="Oval" fill-rule="nonzero"></path>
                    </g>
                </g>
            </g>
        </g>
    </g>
</svg>